<?xml version="1.0"?>
<svg width="640px" height="320px" viewbox="0 0 640 320" xmlns="http://www.w3.org/2000/svg">
<rect x="0" y="0" width="640" height="320" fill="#F6E2E8"/>
<line x1="0" y1="0" x2="640" y2="320" stroke="#400000" stroke-width="3"/>
<line x1="640" y1="0" x2="0" y2="320" stroke="#400000" stroke-width="3"/>
<line x1="107" y1="160" x2="533" y2="160" stroke="#400000" stroke-width="3"/>
<line x1="0" y1="0" x2="107" y2="160" stroke="#400000" stroke-width="3"/>
<line x1="0" y1="320" x2="107" y2="160" stroke="#400000" stroke-width="3"/>
<line x1="640" y1="0" x2="533" y2="160" stroke="#400000" stroke-width="3"/>
<line x1="640" y1="320" x2="533" y2="160" stroke="#400000" stroke-width="3"/>
<line x1="214" y1="0" x2="320" y2="160" stroke="#400000" stroke-width="3"/>
<line x1="426" y1="0" x2="320" y2="160" stroke="#400000" stroke-width="3"/>
<line x1="214" y1="320" x2="320" y2="160" stroke="#400000" stroke-width="3"/>
<line x1="426" y1="320" x2="320" y2="160" stroke="#400000" stroke-width="3"/>
<line x1="0" y1="320" x2="214" y2="320" stroke="#400000" stroke-width="3"/>
<line x1="0" y1="0" x2="214" y2="0" stroke="#400000" stroke-width="3"/>
<line x1="640" y1="320" x2="426" y2="320" stroke="#400000" stroke-width="3"/>
<line x1="640" y1="0" x2="426" y2="0" stroke="#400000" stroke-width="3"/>
<line x1="0" y1="0" x2="0" y2="320" stroke="#400000" stroke-width="3"/>
<line x1="320" y1="0" x2="320" y2="320" stroke="#400000" stroke-width="3"/>
<line x1="640" y1="0" x2="640" y2="320" stroke="#400000" stroke-width="3"/>
</svg>